<?xml version="1.0" standalone="no"?>
<!DOCTYPE svg PUBLIC "-//W3C//DTD SVG 20010904//EN"
 "http://www.w3.org/TR/2001/REC-SVG-20010904/DTD/svg10.dtd">
<svg version="1.0" xmlns="http://www.w3.org/2000/svg"
 width="640.000000pt" height="640.000000pt" viewBox="0 0 640.000000 640.000000"
 preserveAspectRatio="xMidYMid meet">
<metadata>
Created by potrace 1.11, written by Peter Selinger 2001-2013
</metadata>
<g transform="translate(0.000000,640.000000) scale(0.100000,-0.100000)"
fill="#000000" stroke="none">
<path d="M1005 5746 c-196 -48 -349 -230 -361 -431 -2 -38 -6 -75 -9 -82 -2
-7 0 -15 6 -18 5 -4 7 -10 4 -14 -4 -8 -9 -274 -4 -296 1 -5 1 -14 0 -19 -3
-12 -3 -288 0 -301 1 -5 1 -14 0 -19 -1 -5 -2 -47 -1 -95 1 -103 1 -112 0
-174 0 -27 2 -53 5 -58 4 -5 3 -9 -2 -9 -8 0 -8 -218 0 -226 2 -3 1 -22 -3
-44 -4 -21 -4 -44 0 -50 4 -6 4 -26 1 -43 -4 -18 -4 -51 -1 -74 4 -24 4 -43 1
-43 -7 0 -5 -219 2 -226 2 -3 1 -22 -3 -44 -4 -21 -4 -44 1 -51 4 -7 6 -16 4
-19 -3 -6 -6 -94 -4 -130 0 -8 0 -76 -1 -150 -1 -74 0 -139 1 -145 1 -5 1 -14
0 -19 -3 -12 -3 -288 0 -301 1 -5 1 -14 -1 -20 -5 -25 -1 -226 5 -235 3 -5 3
-10 -2 -10 -4 0 -8 -22 -8 -50 0 -27 3 -50 6 -50 3 0 3 -19 0 -42 -4 -24 -4
-56 -1 -73 3 -16 3 -44 0 -60 -4 -17 -4 -39 0 -50 4 -11 4 -30 1 -42 -3 -13
-5 -43 -3 -67 l4 -44 46 -1 c98 -1 156 0 162 4 3 2 12 0 19 -4 7 -5 30 -5 51
-1 22 4 41 5 44 3 7 -7 226 -9 226 -2 0 3 19 3 43 -1 23 -3 56 -3 74 1 17 3
37 3 43 -1 6 -4 29 -4 50 0 22 4 41 5 44 3 8 -8 226 -8 226 0 0 5 4 6 9 2 5
-3 31 -5 58 -5 62 1 71 1 174 0 48 -1 90 0 95 1 5 1 14 1 19 0 13 -3 289 -3
301 0 5 1 14 1 19 0 14 -3 319 -1 393 2 34 1 62 0 62 -3 0 -3 26 -4 57 -2 32
1 78 2 103 1 25 0 51 0 58 0 6 1 18 1 25 1 13 1 258 1 292 0 11 0 36 0 55 1
19 0 42 0 50 0 81 -2 122 -1 130 4 6 3 10 3 10 -2 0 -4 23 -8 50 -8 28 0 50 4
50 8 0 5 5 5 10 2 9 -6 210 -10 235 -5 6 2 15 2 20 1 6 -1 75 -2 155 -1 80 1
152 1 160 1 59 -2 124 0 131 5 5 3 9 2 9 -3 0 -4 36 -6 81 -3 44 3 85 3 90 0
4 -3 36 -3 69 0 33 3 65 3 71 -1 6 -3 28 -3 49 1 22 4 41 5 44 3 7 -7 226 -9
226 -2 0 3 19 3 43 -1 23 -3 56 -3 74 1 17 3 37 3 43 -1 6 -4 29 -4 50 0 22 4
41 5 44 3 7 -7 226 -9 226 -2 0 3 20 3 45 -1 25 -4 48 -3 51 2 3 4 9 6 13 4 7
-5 26 -6 114 -6 l32 0 -2 72 c-2 40 -5 78 -7 85 -3 7 -1 15 5 18 5 4 7 10 4
15 -6 9 -7 71 -3 153 2 31 1 57 -2 57 -3 0 -4 28 -2 62 4 120 3 319 -3 328 -4
6 -3 10 2 10 4 0 8 23 8 50 0 28 -4 50 -8 50 -5 0 -5 4 -2 10 5 8 6 49 4 130
0 8 0 31 0 50 1 19 1 44 1 55 -1 34 -1 279 0 293 0 6 0 18 1 25 0 6 0 32 0 57
-1 25 0 71 1 103 2 31 1 57 -2 57 -3 0 -4 28 -2 62 4 120 3 319 -3 328 -4 6
-3 10 2 10 4 0 8 23 8 50 0 28 -4 50 -8 50 -5 0 -5 4 -2 10 5 8 6 49 4 130 0
8 0 31 0 50 1 19 1 44 1 55 -1 34 -1 279 0 293 0 6 0 18 1 25 0 6 0 32 0 57
-1 25 0 71 1 103 2 31 1 57 -2 57 -3 0 -4 28 -2 62 3 98 2 306 -2 378 -8 117
-58 221 -147 308 -53 51 -163 108 -238 122 -84 16 -4301 12 -4366 -4z m414
-626 c6 3 33 4 59 0 27 -3 60 -3 73 0 13 4 33 4 44 0 11 -4 33 -4 50 0 16 3
44 3 60 0 17 -3 49 -3 73 1 23 3 42 3 42 -1 0 -3 21 -4 48 -1 26 3 67 4 92 1
25 -3 56 -3 70 1 14 3 34 3 45 -1 11 -4 33 -4 50 0 16 3 44 3 60 0 17 -3 49
-3 73 1 23 3 42 3 42 0 0 -3 23 -6 50 -6 28 0 50 4 50 8 0 5 5 5 10 2 13 -8
226 -9 239 -1 5 4 12 3 15 -2 2 -4 33 -5 68 -2 35 3 86 3 113 0 28 -3 69 -2
93 1 23 3 44 3 47 0 2 -4 32 -4 67 -1 35 3 86 3 113 0 28 -3 69 -2 93 1 23 3
44 3 47 0 2 -4 32 -4 67 -1 35 3 86 3 113 0 28 -3 69 -2 93 1 23 3 45 2 48 -3
3 -4 9 -6 14 -3 13 8 408 8 420 0 6 -3 10 -2 10 3 0 5 19 6 43 2 23 -3 56 -3
74 1 17 3 37 3 43 -1 6 -4 29 -4 51 0 22 4 41 4 43 1 3 -4 33 -4 68 -1 35 3
84 3 111 0 26 -3 47 -3 47 0 0 4 19 4 43 0 23 -3 56 -3 74 1 17 3 37 3 43 -1
6 -4 29 -4 51 0 22 4 41 4 43 1 3 -4 33 -4 68 -1 35 3 84 3 111 0 26 -3 47 -3
47 0 0 4 19 4 43 1 41 -6 42 -7 48 -48 3 -24 3 -43 0 -43 -7 0 -5 -119 1 -126
3 -2 2 -23 -1 -47 -3 -23 -4 -64 -1 -92 3 -27 3 -78 0 -113 -3 -35 -3 -65 1
-67 3 -3 3 -24 0 -47 -3 -24 -4 -65 -1 -93 3 -27 3 -78 0 -113 -3 -35 -3 -65
1 -67 3 -3 3 -24 0 -47 -3 -24 -4 -65 -1 -93 3 -27 3 -78 0 -113 -3 -35 -3
-65 1 -67 3 -3 3 -24 0 -47 -3 -24 -4 -65 -1 -93 3 -27 3 -78 0 -113 -3 -35
-3 -65 1 -67 3 -3 3 -24 0 -47 -3 -24 -4 -65 -1 -93 3 -27 3 -78 0 -113 -3
-35 -3 -65 1 -67 3 -3 3 -24 0 -47 -3 -24 -4 -65 -1 -93 3 -27 3 -78 0 -113
-3 -35 -3 -65 1 -67 3 -3 3 -24 0 -47 -3 -24 -4 -65 -1 -93 3 -27 3 -78 0
-113 -3 -35 -2 -66 2 -68 5 -3 6 -9 4 -13 -3 -4 -6 -26 -7 -48 -3 -37 -6 -42
-31 -45 -15 -3 -32 -1 -38 2 -6 4 -29 4 -51 0 -22 -4 -41 -4 -43 -1 -3 4 -33
4 -68 1 -35 -3 -84 -3 -110 0 -27 3 -48 3 -48 0 0 -4 -19 -4 -42 0 -24 3 -57
3 -75 -1 -17 -3 -37 -3 -43 1 -6 4 -29 4 -51 0 -22 -4 -41 -4 -43 -1 -3 4 -33
4 -68 1 -35 -3 -84 -3 -110 0 -27 3 -48 3 -48 0 0 -4 -19 -4 -42 0 -24 3 -57
3 -75 -1 -17 -3 -36 -3 -43 1 -6 4 -31 4 -55 0 -25 -4 -45 -4 -45 -1 0 7 -216
5 -236 -3 -7 -3 -15 -2 -18 2 -2 4 -33 5 -68 2 -35 -3 -85 -3 -113 0 -27 3
-69 2 -93 -1 -23 -3 -44 -3 -47 0 -2 4 -32 4 -67 1 -35 -3 -85 -3 -113 0 -27
3 -69 2 -93 -1 -23 -3 -44 -3 -47 0 -2 4 -32 4 -67 1 -35 -3 -85 -3 -113 0
-27 3 -69 2 -93 -1 -23 -3 -45 -2 -48 3 -3 4 -10 6 -15 3 -5 -4 -73 -5 -151
-5 -79 1 -147 1 -153 1 -5 0 -38 -2 -73 -3 -34 -2 -62 -1 -62 2 0 3 -26 4 -57
2 -82 -4 -144 -3 -153 3 -5 3 -11 1 -14 -3 -3 -5 -22 -6 -43 -3 -21 4 -55 4
-76 0 -20 -3 -39 -3 -42 1 -2 4 -25 4 -50 0 -25 -4 -45 -4 -45 -1 0 3 -26 5
-57 3 -82 -4 -144 -3 -153 3 -5 3 -11 1 -14 -3 -3 -5 -22 -6 -43 -3 -21 4 -55
4 -76 0 -20 -3 -39 -4 -41 0 -3 4 -22 5 -43 3 -53 -4 -115 -2 -126 5 -5 3 -7
16 -4 29 2 14 1 27 -3 29 -4 3 -4 23 0 45 4 22 4 42 0 45 -4 3 -4 22 0 44 4
22 4 45 0 51 -4 6 -4 26 -1 43 4 18 4 51 1 75 -4 23 -4 42 0 42 3 0 3 21 0 48
-3 26 -3 75 0 110 3 35 3 65 -1 68 -3 2 -3 21 1 43 4 22 4 45 0 51 -4 6 -4 26
-1 43 4 18 4 51 1 75 -4 23 -4 42 0 42 3 0 3 21 0 48 -3 26 -3 75 0 110 3 35
3 65 -1 68 -3 2 -3 21 1 43 4 22 4 45 0 51 -4 6 -4 26 -1 43 4 18 4 51 1 75
-4 23 -4 42 0 42 3 0 3 21 0 48 -3 26 -3 75 0 110 3 35 3 65 -1 68 -3 2 -3 21
1 43 4 22 4 45 0 51 -4 6 -4 26 -1 43 4 18 4 51 1 75 -4 23 -4 42 0 42 3 0 3
21 0 48 -3 26 -3 75 0 110 3 35 3 65 -1 68 -3 2 -3 21 1 43 4 22 4 44 1 50 -4
5 -4 40 -1 76 3 37 3 68 -1 70 -3 3 -3 25 1 50 4 25 3 48 -2 51 -4 3 -6 10 -2
15 3 6 6 37 5 69 0 57 0 59 27 62 15 2 44 0 64 -3 20 -3 41 -3 47 1z"/>
<path d="M190 1600 c-6 -4 -21 -5 -34 -3 -35 7 -91 -21 -122 -63 l-29 -38 1
-160 c0 -89 4 -172 7 -186 4 -14 9 -36 12 -49 13 -65 89 -193 154 -259 83 -84
99 -95 189 -138 143 -68 -63 -63 2837 -63 2918 -1 2685 -6 2834 66 42 21 84
44 95 53 44 35 115 108 142 145 16 22 31 42 34 45 4 3 17 30 29 60 22 50 29
71 48 135 3 11 8 91 9 178 4 180 -1 199 -66 246 -33 24 -47 28 -104 27 -36 -1
-66 1 -66 4 0 4 -27 4 -125 0 -11 -1 -38 -1 -60 -1 -22 0 -48 0 -57 0 -10 0
-66 1 -126 1 -59 1 -112 1 -117 0 -6 -2 -12 -2 -15 -1 -16 5 -450 5 -450 0 0
-3 -19 -3 -42 1 -24 3 -57 3 -75 -1 -17 -3 -36 -3 -43 1 -6 4 -31 4 -55 0 -25
-4 -45 -4 -45 -1 0 5 -91 6 -225 2 -16 -1 -57 -1 -89 -1 -32 -1 -63 -3 -67 -6
-5 -3 -9 -2 -9 3 0 7 -77 7 -258 0 -34 -1 -62 0 -62 3 0 3 -26 4 -57 2 -32 -1
-74 -2 -93 -2 -19 1 -42 1 -50 1 -36 -1 -110 -1 -117 0 -4 1 -31 1 -60 0 -43
-1 -51 -4 -49 -18 2 -10 -1 -31 -6 -48 -5 -16 -10 -35 -11 -40 -6 -29 -53
-103 -81 -128 -68 -62 -151 -89 -266 -87 -25 1 -51 1 -57 1 -28 -2 -45 -2 -98
-1 -30 1 -59 -1 -64 -4 -5 -4 -12 -2 -15 2 -3 5 -26 6 -51 2 -25 -4 -45 -4
-45 0 0 4 -20 4 -45 0 -25 -4 -45 -3 -45 2 0 5 -4 7 -9 4 -23 -15 -226 -3
-247 15 -8 6 -14 9 -14 5 0 -10 -103 65 -128 93 -30 35 -72 122 -79 165 -6 39
-26 46 -96 35 -20 -4 -39 -3 -42 1 -2 4 -25 4 -50 0 -25 -4 -45 -4 -45 -1 0 5
-25 5 -125 1 -11 -1 -38 -1 -60 -1 -22 0 -48 0 -57 0 -10 0 -67 1 -126 1 -59
1 -112 1 -117 0 -6 -2 -12 -2 -15 -1 -16 5 -450 5 -450 0 0 -3 -19 -3 -42 1
-24 3 -57 3 -75 -1 -17 -3 -36 -3 -43 1 -6 4 -31 4 -55 0 -25 -4 -45 -4 -45
-1 0 5 -91 6 -225 2 -16 -1 -57 -1 -89 -1 -32 -1 -63 -3 -67 -6 -5 -3 -9 -2
-9 3 0 7 -77 7 -258 0 -34 -1 -62 0 -62 3 0 6 -99 4 -106 -2 -2 -3 -24 -2 -49
2 -24 4 -49 4 -55 0z"/>
</g>
</svg>
